<?xml version="1.0" encoding="utf-8"?>
<svg viewBox="61.489 17.782 180.039 160.686" xmlns="http://www.w3.org/2000/svg">
  <path d="M 187.963 66.736 C 179.857 66.736 172.2 69.889 166.74 75.349 L 150.808 89.48 L 142.251 97.023 L 142.307 97.023 L 127.163 110.478 C 123.56 114.081 118.775 116.052 113.652 116.052 C 103.125 116.052 94.568 107.551 94.568 97.023 C 94.568 86.496 103.125 77.995 113.652 77.995 C 118.775 77.995 123.56 79.966 127.388 83.794 L 133.75 89.423 L 142.251 81.88 L 135.157 75.631 C 129.415 69.889 121.759 66.736 113.652 66.736 C 96.876 66.736 83.252 80.36 83.252 97.023 C 83.252 113.687 96.876 127.311 113.652 127.311 C 121.759 127.311 129.415 124.158 134.876 118.698 L 150.808 104.623 L 150.864 104.68 L 159.365 97.023 L 159.308 97.023 L 174.452 83.569 C 178.055 79.966 182.84 77.995 187.963 77.995 C 198.491 77.995 207.048 86.496 207.048 97.023 C 207.048 107.551 198.491 116.052 187.963 116.052 C 182.897 116.052 178.055 114.081 174.227 110.253 L 167.809 104.567 L 159.308 112.111 L 166.458 118.416 C 172.2 124.102 179.8 127.255 187.963 127.255 C 204.74 127.255 218.363 113.687 218.363 96.967 C 218.363 80.247 204.74 66.736 187.963 66.736 Z" style="fill: rgb(12, 242, 143);"/>
</svg>