<?xml version="1.0" encoding="utf-8"?>
<svg viewBox="4.132 10.635 193.338 48.865" xmlns="http://www.w3.org/2000/svg">
  <path d="M -2.511 -31.969 L -2.511 -61.369 L 1.689 -61.369 L 1.689 -35.619 L 17.609 -35.619 L 17.609 -31.969 L -2.511 -31.969 ZM 35.999 -54.229 L 39.949 -54.229 L 29.159 -29.739 C 28.206 -27.472 27.092 -25.879 25.819 -24.959 C 24.546 -24.032 23.012 -23.569 21.219 -23.569 C 20.126 -23.569 19.069 -23.742 18.049 -24.089 C 17.022 -24.442 16.176 -24.956 15.509 -25.629 L 17.229 -28.649 C 18.376 -27.556 19.706 -27.009 21.219 -27.009 C 22.199 -27.009 23.019 -27.269 23.679 -27.789 C 24.332 -28.309 24.926 -29.199 25.459 -30.459 L 26.169 -32.009 L 16.349 -54.229 L 20.549 -54.229 L 28.319 -36.419 L 35.999 -54.229 ZM 47.595 -50.489 C 48.295 -51.776 49.329 -52.756 50.695 -53.429 C 52.069 -54.102 53.735 -54.439 55.695 -54.439 L 55.695 -50.529 C 55.475 -50.562 55.169 -50.579 54.775 -50.579 C 52.589 -50.579 50.872 -49.926 49.625 -48.619 C 48.379 -47.319 47.755 -45.466 47.755 -43.059 L 47.755 -31.969 L 43.725 -31.969 L 43.725 -54.229 L 47.595 -54.229 L 47.595 -50.489 ZM 80.56 -42.969 C 80.56 -42.662 80.533 -42.259 80.48 -41.759 L 62.42 -41.759 C 62.667 -39.799 63.527 -38.222 65 -37.029 C 66.467 -35.842 68.293 -35.249 70.48 -35.249 C 73.14 -35.249 75.283 -36.142 76.91 -37.929 L 79.13 -35.329 C 78.123 -34.156 76.87 -33.259 75.37 -32.639 C 73.877 -32.026 72.203 -31.719 70.35 -31.719 C 68.003 -31.719 65.92 -32.202 64.1 -33.169 C 62.28 -34.136 60.873 -35.486 59.88 -37.219 C 58.88 -38.952 58.38 -40.912 58.38 -43.099 C 58.38 -45.252 58.863 -47.199 59.83 -48.939 C 60.797 -50.672 62.127 -52.022 63.82 -52.989 C 65.513 -53.956 67.427 -54.439 69.56 -54.439 C 71.687 -54.439 73.583 -53.956 75.25 -52.989 C 76.917 -52.022 78.217 -50.672 79.15 -48.939 C 80.09 -47.199 80.56 -45.209 80.56 -42.969 Z M 69.56 -51.039 C 67.627 -51.039 66.01 -50.449 64.71 -49.269 C 63.403 -48.096 62.64 -46.556 62.42 -44.649 L 76.7 -44.649 C 76.473 -46.529 75.71 -48.062 74.41 -49.249 C 73.103 -50.442 71.487 -51.039 69.56 -51.039 Z" transform="matrix(0.9641020894050598, 0, 0, 1, 14.175956726074219, 78.98792266845703)" style="white-space: pre;"/>
  <path d="M 116.132 -53.769 L 117.472 -53.769 L 109.162 -31.969 L 107.862 -31.969 L 100.132 -51.919 L 92.362 -31.969 L 91.142 -31.969 L 82.782 -53.769 L 84.132 -53.769 L 91.732 -33.569 L 99.502 -53.769 L 100.762 -53.769 L 108.492 -33.569 L 116.132 -53.769 ZM 123.945 -48.519 C 124.585 -50.252 125.625 -51.589 127.065 -52.529 C 128.512 -53.469 130.298 -53.939 132.425 -53.939 L 132.425 -52.549 L 132.045 -52.549 C 129.525 -52.549 127.552 -51.752 126.125 -50.159 C 124.698 -48.559 123.985 -46.359 123.985 -43.559 L 123.985 -31.969 L 122.595 -31.969 L 122.595 -53.769 L 123.945 -53.769 L 123.945 -48.519 ZM 138.512 -31.969 L 138.512 -53.769 L 139.902 -53.769 L 139.902 -31.969 L 138.512 -31.969 Z M 139.182 -59.479 C 138.822 -59.479 138.502 -59.612 138.222 -59.879 C 137.942 -60.146 137.802 -60.459 137.802 -60.819 C 137.802 -61.212 137.935 -61.542 138.202 -61.809 C 138.468 -62.076 138.795 -62.209 139.182 -62.209 C 139.548 -62.209 139.872 -62.076 140.152 -61.809 C 140.432 -61.542 140.572 -61.229 140.572 -60.869 C 140.572 -60.502 140.432 -60.179 140.152 -59.899 C 139.872 -59.619 139.548 -59.479 139.182 -59.479 ZM 158.801 -34.359 L 159.511 -33.359 C 159.011 -32.879 158.368 -32.506 157.581 -32.239 C 156.794 -31.972 155.981 -31.839 155.141 -31.839 C 153.381 -31.839 152.018 -32.336 151.051 -33.329 C 150.084 -34.329 149.601 -35.696 149.601 -37.429 L 149.601 -52.549 L 145.481 -52.549 L 145.481 -53.769 L 149.601 -53.769 L 149.601 -58.559 L 150.991 -58.559 L 150.991 -53.769 L 158.171 -53.769 L 158.171 -52.549 L 150.991 -52.549 L 150.991 -37.639 C 150.991 -36.152 151.354 -35.019 152.081 -34.239 C 152.808 -33.452 153.871 -33.059 155.271 -33.059 C 156.671 -33.059 157.848 -33.492 158.801 -34.359 ZM 182.824 -43.059 L 182.824 -42.679 L 163.714 -42.679 C 163.74 -40.832 164.174 -39.179 165.014 -37.719 C 165.854 -36.266 167.007 -35.132 168.474 -34.319 C 169.947 -33.506 171.594 -33.099 173.414 -33.099 C 174.9 -33.099 176.274 -33.372 177.534 -33.919 C 178.794 -34.466 179.827 -35.272 180.634 -36.339 L 181.524 -35.409 C 180.544 -34.262 179.354 -33.382 177.954 -32.769 C 176.554 -32.149 175.04 -31.839 173.414 -31.839 C 171.287 -31.839 169.39 -32.309 167.724 -33.249 C 166.057 -34.189 164.747 -35.499 163.794 -37.179 C 162.84 -38.859 162.364 -40.762 162.364 -42.889 C 162.364 -45.016 162.807 -46.919 163.694 -48.599 C 164.574 -50.279 165.797 -51.589 167.364 -52.529 C 168.93 -53.469 170.68 -53.939 172.614 -53.939 C 174.52 -53.939 176.25 -53.476 177.804 -52.549 C 179.357 -51.622 180.58 -50.336 181.474 -48.689 C 182.374 -47.036 182.824 -45.159 182.824 -43.059 Z M 172.614 -52.679 C 170.994 -52.679 169.524 -52.299 168.204 -51.539 C 166.89 -50.786 165.84 -49.729 165.054 -48.369 C 164.274 -47.009 163.84 -45.489 163.754 -43.809 L 181.524 -43.809 C 181.41 -45.489 180.954 -47.009 180.154 -48.369 C 179.354 -49.729 178.304 -50.786 177.004 -51.539 C 175.704 -52.299 174.24 -52.679 172.614 -52.679 Z" transform="matrix(0.9641020894050598, 0, 0, 1, 14.175956726074219, 78.98792266845703)" style="white-space: pre;"/>
</svg>